<svg width="1440" height="900" viewBox="0 0 1440 900" fill="none" xmlns="http://www.w3.org/2000/svg">
<g clip-path="url(#clip0_3982_90787)">
<rect width="1440" height="900" fill="#1F1F47"/>
<g filter="url(#filter0_b_3982_90787)">
<rect width="1440" height="900" fill="black" fill-opacity="0.2"/>
</g>
<path d="M0 0H1442V900H0V0Z" fill="url(#paint0_linear_3982_90787)"/>
<path d="M1149.05 286.787C903.809 272.361 863.417 298.894 714.831 286.787C566.245 274.68 611.359 214.782 447.953 196.47C284.546 178.159 78.1746 108.907 7.65908e-09 128.438L1.83806e-06 950L1440 950L1440 327C1440 327 1394.29 301.213 1149.05 286.787Z" fill="url(#paint1_linear_3982_90787)" fill-opacity="0.1"/>
<path d="M784 427C717 413 643 445 549 416C455 387 334.894 367.01 222 328C109.106 288.99 2.60359e-08 320 2.60359e-08 320L1.83811e-06 1133.34L1440 1133.34L1440 497C1440 497 1392.49 474.329 1284 464.333C1175.51 454.338 1059 439 977 427C895 415 851 441 784 427Z" fill="url(#paint2_linear_3982_90787)"/>
<path d="M965 541C868 512 557.394 493.968 470 426C382.606 358.033 313.894 339.01 201 300C88.106 260.99 7.4283e-10 267 7.4283e-10 267L2.15964e-06 1236L1440 1236L1440 626C1440 626 1385 610 1310 600C1235 590 1180 569 1113 569C1046 569 1062 570 965 541Z" fill="url(#paint3_linear_3982_90787)"/>
<path d="M757 500C668.601 441.028 585.643 464.875 498.248 396.907C410.854 328.94 387 301 267 255C147 209 0 203 0 203L2.5666e-06 1355L1440 1355L1440 763.674C1440 763.674 1365.16 701.762 1256.67 691.766C1148.18 681.771 1003 598.46 931 564C859 529.54 845.399 558.972 757 500Z" fill="url(#paint4_linear_3982_90787)"/>
<path d="M1034 731.5C977.5 723.971 937.769 714.911 875 680C796.581 636.385 751.5 608.499 630 608.499C508.5 608.499 468.245 574.728 382 542C312.47 515.615 284 453.378 149 433C14 412.622 4.66343e-10 416 4.66343e-10 416C1.93902e-07 502.822 2.50023e-06 1538 2.50023e-06 1538L1440 1538L1440 858C1440 858 1294.5 816 1237 808C1179.5 800 1162.09 817.713 1126.5 799.5C1085.21 778.367 1090.5 739.028 1034 731.5Z" fill="url(#paint5_linear_3982_90787)"/>
<path d="M752 910.068C649 885.068 615 879.068 507 870.068C399 861.067 436 864.068 307 830.067C178 796.067 1.50294e-10 799.068 1.50294e-10 799.068L2.09888e-06 1741.07L1440 1741.07L1440 1049.07C1440 1049.07 1358.49 1027.06 1250 1017.07C1141.51 1007.07 1098 962.068 1017 956.068C936 950.068 855 935.068 752 910.068Z" fill="url(#paint6_linear_3982_90787)"/>
<g filter="url(#filter1_bf_3982_90787)">
<rect x="-5" y="340" width="252" height="169" fill="#111111" fill-opacity="0.01"/>
</g>
<g filter="url(#filter2_bf_3982_90787)">
<rect x="1044.97" y="728" width="402.766" height="117.119" transform="rotate(8.82675 1044.97 728)" fill="#111111" fill-opacity="0.01"/>
</g>
</g>
<defs>
<filter id="filter0_b_3982_90787" x="-10" y="-10" width="1460" height="920" filterUnits="userSpaceOnUse" color-interpolation-filters="sRGB">
<feFlood flood-opacity="0" result="BackgroundImageFix"/>
<feGaussianBlur in="BackgroundImageFix" stdDeviation="5"/>
<feComposite in2="SourceAlpha" operator="in" result="effect1_backgroundBlur_3982_90787"/>
<feBlend mode="normal" in="SourceGraphic" in2="effect1_backgroundBlur_3982_90787" result="shape"/>
</filter>
<filter id="filter1_bf_3982_90787" x="-65" y="280" width="372" height="289" filterUnits="userSpaceOnUse" color-interpolation-filters="sRGB">
<feFlood flood-opacity="0" result="BackgroundImageFix"/>
<feGaussianBlur in="BackgroundImageFix" stdDeviation="30"/>
<feComposite in2="SourceAlpha" operator="in" result="effect1_backgroundBlur_3982_90787"/>
<feBlend mode="normal" in="SourceGraphic" in2="effect1_backgroundBlur_3982_90787" result="shape"/>
<feGaussianBlur stdDeviation="30" result="effect2_foregroundBlur_3982_90787"/>
</filter>
<filter id="filter2_bf_3982_90787" x="967" y="668" width="535.967" height="297.535" filterUnits="userSpaceOnUse" color-interpolation-filters="sRGB">
<feFlood flood-opacity="0" result="BackgroundImageFix"/>
<feGaussianBlur in="BackgroundImageFix" stdDeviation="30"/>
<feComposite in2="SourceAlpha" operator="in" result="effect1_backgroundBlur_3982_90787"/>
<feBlend mode="normal" in="SourceGraphic" in2="effect1_backgroundBlur_3982_90787" result="shape"/>
<feGaussianBlur stdDeviation="30" result="effect2_foregroundBlur_3982_90787"/>
</filter>
<linearGradient id="paint0_linear_3982_90787" x1="693.378" y1="70.6926" x2="490" y2="423" gradientUnits="userSpaceOnUse">
<stop stop-color="#0C6ABC"/>
<stop offset="1" stop-color="#2FB0D9"/>
</linearGradient>
<linearGradient id="paint1_linear_3982_90787" x1="785" y1="317.422" x2="758.272" y2="478.685" gradientUnits="userSpaceOnUse">
<stop stop-color="#B0C5E6"/>
<stop offset="1" stop-color="white"/>
</linearGradient>
<linearGradient id="paint2_linear_3982_90787" x1="782" y1="416" x2="761.769" y2="564.655" gradientUnits="userSpaceOnUse">
<stop stop-color="#B0C5E6"/>
<stop offset="1" stop-color="white"/>
</linearGradient>
<linearGradient id="paint3_linear_3982_90787" x1="1134" y1="471" x2="1100.86" y2="621.113" gradientUnits="userSpaceOnUse">
<stop stop-color="#F68B2E"/>
<stop offset="0.951543" stop-color="#F6BB5C"/>
</linearGradient>
<linearGradient id="paint4_linear_3982_90787" x1="919.65" y1="708.7" x2="983.465" y2="549.785" gradientUnits="userSpaceOnUse">
<stop stop-color="#FF7777"/>
<stop offset="1" stop-color="#EF234C"/>
</linearGradient>
<linearGradient id="paint5_linear_3982_90787" x1="761.5" y1="578.5" x2="685.834" y2="858.634" gradientUnits="userSpaceOnUse">
<stop stop-color="#FF2424"/>
<stop offset="0.487613" stop-color="#C1347A"/>
<stop offset="1" stop-color="#5A3C76"/>
</linearGradient>
<linearGradient id="paint6_linear_3982_90787" x1="720" y1="852.068" x2="720" y2="1091.07" gradientUnits="userSpaceOnUse">
<stop stop-color="#D0D7FA" stop-opacity="0.8"/>
<stop offset="1" stop-color="#F2F6FF"/>
</linearGradient>
<clipPath id="clip0_3982_90787">
<rect width="1440" height="900" fill="white"/>
</clipPath>
</defs>
</svg>
